<svg width="1370" height="512" viewBox="0 0 1370 512" fill="none" xmlns="http://www.w3.org/2000/svg">
<rect x="18.5" y="18.5" width="1333" height="475" rx="40" stroke="black" stroke-width="37"/>
<path d="M1114.77 263.481V133.5H1189.05V263.481H1263.32L1151.91 386.498L1040.5 263.481H1114.77Z" fill="black"/>
<path d="M891.422 385.805C871.957 385.805 853.882 382.792 837.197 376.767C820.744 370.742 806.377 362.168 794.095 351.045C782.046 339.691 772.545 326.019 765.593 310.029C758.641 294.04 755.165 276.197 755.165 256.5C755.165 236.803 758.641 218.96 765.593 202.971C772.545 186.981 782.046 173.309 794.095 161.955C806.145 150.6 820.281 141.91 836.502 135.885C852.723 129.628 870.103 126.5 888.641 126.5C907.874 126.5 926.065 129.628 943.213 135.885C960.593 142.142 974.728 150.716 985.62 161.607L937.304 219.655C932.206 213.63 926.181 208.88 919.229 205.404C912.277 201.696 903.703 199.842 893.507 199.842C886.787 199.842 880.183 201.233 873.694 204.013C867.438 206.562 861.876 210.386 857.01 215.484C852.144 220.35 848.204 226.259 845.192 233.211C842.179 240.163 840.673 247.926 840.673 256.5C840.673 273.648 845.076 287.668 853.882 298.559C862.919 309.218 877.286 314.548 896.983 314.548C900.459 314.548 904.051 314.316 907.759 313.853C911.466 313.158 914.363 312.231 916.448 311.072V292.302H876.823V227.302H989.791V361.821C983.997 365.297 977.277 368.541 969.63 371.554C962.215 374.334 954.22 376.767 945.646 378.853C937.304 380.939 928.498 382.561 919.229 383.719C909.96 385.11 900.691 385.805 891.422 385.805Z" fill="black"/>
<path d="M489.323 240.511L493.146 379.548H415.98V133.452H524.082L568.574 265.885H570.312L608.895 133.452H720.472V379.548H640.178L642.611 241.206L640.526 240.859L594.644 379.548H536.248L491.061 240.511H489.323Z" fill="black"/>
<path d="M107.5 255.11C107.5 235.413 110.976 217.685 117.928 201.928C124.88 185.939 134.381 172.382 146.43 161.259C158.712 150.136 173.195 141.562 189.88 135.537C206.564 129.512 224.639 126.5 244.104 126.5C263.57 126.5 281.644 129.512 298.329 135.537C315.013 141.562 329.496 150.136 341.778 161.259C354.06 172.382 363.676 185.939 370.628 201.928C377.58 217.685 381.056 235.413 381.056 255.11C381.056 274.807 377.58 292.766 370.628 308.987C363.676 325.208 354.06 339.111 341.778 350.698C329.496 362.053 315.013 370.858 298.329 377.115C281.644 383.372 263.57 386.5 244.104 386.5C224.639 386.5 206.564 383.372 189.88 377.115C173.195 370.858 158.712 362.053 146.43 350.698C134.381 339.111 124.88 325.208 117.928 308.987C110.976 292.766 107.5 274.807 107.5 255.11ZM195.441 255.11C195.441 263.22 196.6 270.635 198.917 277.356C201.466 284.076 204.826 289.869 208.997 294.735C213.4 299.602 218.614 303.425 224.639 306.206C230.664 308.755 237.152 310.029 244.104 310.029C251.056 310.029 257.429 308.755 263.222 306.206C269.247 303.425 274.461 299.602 278.864 294.735C283.266 289.869 286.627 284.076 288.944 277.356C291.493 270.635 292.767 263.22 292.767 255.11C292.767 247.231 291.493 240.047 288.944 233.559C286.627 226.839 283.266 221.277 278.864 216.874C274.461 212.24 269.247 208.648 263.222 206.099C257.429 203.55 251.056 202.275 244.104 202.275C237.152 202.275 230.664 203.55 224.639 206.099C218.614 208.648 213.4 212.24 208.997 216.874C204.826 221.277 201.466 226.839 198.917 233.559C196.6 240.047 195.441 247.231 195.441 255.11Z" fill="black"/>
</svg>
